<svg width="35" height="35" viewBox="0 0 35 35" fill="none" xmlns="http://www.w3.org/2000/svg">
<g clip-path="url(#clip0)">
<path d="M14.948 16.4062H1.09375C0.489998 16.4062 0 15.9163 0 15.3125C0 14.7087 0.489998 14.2188 1.09375 14.2188H14.948C15.5518 14.2188 16.0418 14.7087 16.0418 15.3125C16.0418 15.9163 15.5518 16.4062 14.948 16.4062Z" fill="#000"/>
<path d="M9.47923 21.875C9.19911 21.875 8.91927 21.7684 8.70618 21.5543C8.27893 21.1268 8.27893 20.4341 8.70618 20.0068L13.4021 15.3111L8.70618 10.6168C8.27893 10.1893 8.27893 9.49658 8.70618 9.06934C9.13342 8.64209 9.8261 8.64209 10.2536 9.06934L15.7224 14.5381C16.1496 14.9653 16.1496 15.658 15.7224 16.0855L10.2536 21.5543C10.0392 21.7684 9.75907 21.875 9.47923 21.875V21.875Z" fill="#000"/>
<path d="M23.3332 35.0008C21.7247 35.0008 20.4167 33.6926 20.4167 32.084V5.83405C20.4167 4.58729 21.2101 3.47458 22.3912 3.06469L31.1529 0.143665C33.1129 -0.45715 35 0.996822 35 2.91756V29.1676C35 30.413 34.2066 31.5241 33.0269 31.9353L24.2622 34.8579C23.9429 34.957 23.647 35.0008 23.3332 35.0008V35.0008ZM32.0832 2.1883C31.9884 2.1883 31.9083 2.20005 31.8223 2.22622L23.0972 5.1355C22.8112 5.23484 22.6042 5.52349 22.6042 5.83405V32.084C22.6042 32.5815 23.1436 32.9169 23.5944 32.7754L32.3196 29.8661C32.6039 29.7668 32.8125 29.4781 32.8125 29.1676V2.91756C32.8125 2.51648 32.4859 2.1883 32.0832 2.1883V2.1883Z" fill="#000"/>
<path d="M12.7605 7.29176C12.1567 7.29176 11.6667 6.80176 11.6667 6.19801V4.01051C11.6667 1.79817 13.4647 0 15.677 0H32.0832C32.687 0 33.177 0.489998 33.177 1.09375C33.177 1.6975 32.687 2.1875 32.0832 2.1875H15.677C14.6722 2.1875 13.8542 3.00568 13.8542 4.01051V6.19801C13.8542 6.80176 13.3643 7.29176 12.7605 7.29176V7.29176Z" fill="#000"/>
<path d="M21.5105 30.625H15.677C13.4647 30.625 11.6667 28.8268 11.6667 26.6145V24.427C11.6667 23.8232 12.1567 23.3333 12.7605 23.3333C13.3643 23.3333 13.8542 23.8232 13.8542 24.427V26.6145C13.8542 27.6193 14.6722 28.4375 15.677 28.4375H21.5105C22.1143 28.4375 22.6042 28.9275 22.6042 29.5313C22.6042 30.135 22.1143 30.625 21.5105 30.625Z" fill="#000"/>
</g>
<defs>
<clipPath id="clip0">
<rect width="35" height="35" fill="#000"/>
</clipPath>
</defs>
</svg>
