<svg width="82" height="87" viewBox="0 0 82 87" fill="none" xmlns="http://www.w3.org/2000/svg">
<path d="M80.1049 46.7482C80.1199 54.7948 77.6398 62.6483 73.0062 69.2275L72.7472 69.5821C72.6628 69.7059 72.5783 69.8241 72.4883 69.9423C72.3982 70.0605 72.2912 70.2068 72.1899 70.3419C72.0886 70.477 72.0379 70.5445 71.9591 70.6402L71.6889 70.9891C71.4131 71.3325 71.126 71.6758 70.8501 72.0079H11.133C11.0711 71.9403 11.0091 71.8671 10.9529 71.794C9.69094 70.2881 8.54489 68.6889 7.52452 67.01V67.01C6.62504 65.5285 5.82575 63.9886 5.13201 62.4004C4.63662 61.2748 4.18626 60.0928 3.79783 58.8996C2.04878 53.5257 1.48552 47.8366 2.14684 42.2241C2.80817 36.6117 4.67836 31.2092 7.62863 26.3887C10.5789 21.5683 14.5391 17.4444 19.2366 14.3012C23.9341 11.1579 29.2572 9.06992 34.8393 8.18101C40.4214 7.29209 46.1299 7.62337 51.5717 9.15203C57.0134 10.6807 62.0591 13.3704 66.3613 17.0359C70.6635 20.7015 74.1199 25.2557 76.4925 30.3851C78.8651 35.5144 80.0975 41.097 80.1049 46.7482V46.7482Z" stroke="#407853" stroke-width="3.17" stroke-miterlimit="10"/>
<path d="M58.1276 35.5481V30.9554H56.8385C56.3262 30.9554 55.5662 33.7696 55.1496 35.5256L58.1276 35.5481Z" fill="#407853"/>
<path d="M48.732 37.8668L49.3456 36.7243L45.9229 36.229L46.514 29.2838L47.4541 28.4339V29.4188H48.49V25.9912H47.4541V27.7135L46.5816 28.5014L46.9925 23.7118H45.9173L44.9603 34.9233H41.3743L43.5529 23.7118H41.9148L39.1676 37.8668H48.732Z" fill="#407853"/>
<path d="M61.6854 35.548L60.5933 23.7118H58.9832L60.0754 35.548H61.6854Z" fill="#407853"/>
<path d="M23.85 37.8669L23.698 37.2478H21.9191L21.7671 37.8669H23.85Z" fill="#407853"/>
<path d="M27.6891 37.8669L27.5822 37.4448H26.3493L26.2424 37.8669H27.6891Z" fill="#407853"/>
<path d="M32.8739 27.0831H32.401V37.8669H32.8739V27.0831Z" fill="#407853"/>
<path d="M34.7654 27.0831H33.555V37.8669H34.7654V27.0831Z" fill="#407853"/>
<path d="M61.1956 23.453V22.6256H40.0514L39.7868 23.453H39.01L38.7623 24.2465H61.7022V23.453H61.1956Z" fill="#407853"/>
<path d="M18.4512 53.6203H17.1621L17.072 53.3108L16.92 52.793H15.9855V54.7235H18.7608C18.6651 54.3633 18.5863 53.9974 18.5244 53.5978L18.4512 53.6203Z" fill="#407853"/>
<path d="M18.7609 55.1569H15.5577V52.3428H16.7906L15.963 49.5287H15.918L15.8279 50.0015H13.8126L13.7225 49.5287H12.6923V50.9695L14.0547 55.2808H18.9467L18.8904 55.1063L18.7609 55.1569Z" fill="#407853"/>
<path d="M23.3095 42.7748H14.398L17.483 53.1927H18.4512C18.3947 52.7522 18.3665 52.3085 18.3668 51.8644C18.3667 51.0945 18.4478 50.3266 18.6089 49.5737V43.2363H19.3801V47.2774C19.5883 46.8299 19.8271 46.3974 20.095 45.9829V43.225H20.8663V44.9135C21.0911 44.639 21.3297 44.376 21.5812 44.1256V43.2363H22.3468V43.4671C22.6544 43.2184 22.9758 42.9873 23.3095 42.7748Z" fill="#407853"/>
<path d="M28.8713 40.2083H26.1129V41.2439H26.9967C27.7378 41.0931 28.4922 41.0177 29.2485 41.0187C31.9342 41.0233 34.5228 42.0239 36.5132 43.8267C38.5035 45.6295 39.7543 48.1064 40.0232 50.7781C40.2184 51.692 40.3165 52.624 40.316 53.5585V55.9843H41.2842V53.5585C41.2842 46.1967 35.7167 40.2083 28.8713 40.2083Z" fill="#407853"/>
<path d="M35.3565 27.3477H31.8099L31.9845 26.4922H35.182L35.3565 27.3477Z" fill="#407853"/>
<path d="M38.644 51.8643C38.6424 51.5222 38.6236 51.1803 38.5877 50.84L39.359 50.5417L39.1957 49.6355H38.3738C38.207 48.9712 37.9712 48.326 37.6701 47.7107L38.295 47.1478L37.8334 46.3543L37.0565 46.6244C36.6749 46.0554 36.2333 45.5289 35.7392 45.0541L36.1389 44.3337L35.4352 43.7428L34.7766 44.2718C34.2226 43.8699 33.6283 43.5266 33.0033 43.2475L33.1328 42.4314L32.2715 42.1162L31.8437 42.8254C31.1864 42.6368 30.5107 42.5198 29.8283 42.4764L29.7101 41.649H28.77L28.6124 42.4651C27.93 42.5085 27.2543 42.6255 26.597 42.8141L26.1692 42.1049L25.3079 42.4201L25.4374 43.2362C24.8124 43.5154 24.2181 43.8586 23.6641 44.2606L23.0223 43.7428L22.3186 44.3337L22.7183 45.0541C22.2243 45.5289 21.7826 46.0554 21.4011 46.6244L20.6242 46.3543L20.1401 47.1591L20.7649 47.7219C20.4615 48.3362 20.2255 48.9816 20.0612 49.6468H19.2393L19.0761 50.5529L19.8473 50.8512C19.8114 51.1915 19.7926 51.5334 19.791 51.8756C19.791 52.2189 19.791 52.5622 19.8473 52.8999L19.0761 53.1926L19.2393 54.0987H20.0612C20.2246 54.7642 20.4606 55.4097 20.7649 56.0236L20.1401 56.5639L20.6017 57.3631L21.3785 57.093C21.7615 57.6593 22.2031 58.1837 22.6958 58.6576L22.2961 59.3837L22.9998 59.9465L23.6416 59.4231C24.1929 59.8291 24.7877 60.1726 25.4148 60.4474L25.2854 61.2635L26.1467 61.5787L26.5745 60.8695C27.2316 61.0599 27.9073 61.1788 28.5898 61.2241L28.7475 62.0346H29.7101L29.8677 61.2241C30.5503 61.1788 31.226 61.0599 31.8831 60.8695L32.3109 61.5787L33.1722 61.2635L33.0427 60.4474C33.655 60.1789 34.2363 59.8449 34.7766 59.4512L35.4184 59.9746L36.122 59.4118L35.7224 58.6858C36.2151 58.2118 36.6566 57.6874 37.0396 57.1211L37.8165 57.3913L38.2781 56.5921L37.6532 56.0292C37.9552 55.4143 38.191 54.769 38.3569 54.1044H39.1788L39.3421 53.1982L38.5877 52.9056C38.6215 52.551 38.644 52.2077 38.644 51.8643ZM29.226 57.1211C28.1847 57.1211 27.1668 56.8123 26.3011 56.2338C25.4354 55.6554 24.7608 54.8331 24.3626 53.8712C23.9644 52.9093 23.8604 51.8509 24.064 50.83C24.2675 49.809 24.7694 48.8714 25.5061 48.1356C26.2428 47.3999 27.1812 46.8991 28.2026 46.6967C29.224 46.4943 30.2825 46.5993 31.2441 46.9985C32.2058 47.3976 33.0275 48.073 33.6052 48.9392C34.1829 49.8053 34.4906 50.8233 34.4895 51.8643C34.4895 52.5551 34.3533 53.2392 34.0887 53.8773C33.8241 54.5155 33.4363 55.0952 32.9475 55.5834C32.4587 56.0716 31.8784 56.4587 31.2398 56.7226C30.6012 56.9864 29.9169 57.1219 29.226 57.1211Z" fill="#407853"/>
<path d="M29.226 47.4349C28.3495 47.4338 27.4924 47.6927 26.7631 48.1787C26.0338 48.6647 25.4651 49.3561 25.1289 50.1654C24.7927 50.9747 24.7042 51.8655 24.8745 52.7251C25.0448 53.5847 25.4663 54.3744 26.0857 54.9945C26.705 55.6145 27.4944 56.0369 28.354 56.2083C29.2136 56.3796 30.1046 56.2923 30.9145 55.9572C31.7244 55.6221 32.4166 55.0544 32.9037 54.3258C33.3908 53.5973 33.6508 52.7407 33.6508 51.8644C33.6515 51.283 33.5376 50.7071 33.3156 50.1697C33.0935 49.6324 32.7677 49.144 32.3568 48.7326C31.9458 48.3212 31.4578 47.9949 30.9206 47.7722C30.3834 47.5496 29.8076 47.4349 29.226 47.4349ZM30.8023 48.1385C31.2827 48.3406 31.7188 48.6351 32.0858 49.0052C32.4548 49.3731 32.7492 49.8088 32.9527 50.2885L32.6037 50.4348C32.2349 49.5554 31.5354 48.8561 30.6559 48.4874L30.8023 48.1385ZM26.3719 49.0052C26.7388 48.6351 27.1749 48.3406 27.6554 48.1385L27.8018 48.4874C26.9222 48.8561 26.2227 49.5554 25.854 50.4348L25.505 50.2885C25.7085 49.8088 26.0029 49.3731 26.3719 49.0052ZM27.6554 55.5846C27.1749 55.3826 26.7388 55.0881 26.3719 54.7179C26.0008 54.3517 25.7062 53.9155 25.505 53.4347L25.854 53.2883C26.04 53.722 26.3053 54.1171 26.6365 54.4534C26.9698 54.7881 27.3657 55.054 27.8018 55.2357L27.6554 55.5846ZM25.9328 51.8644C25.9317 51.2116 26.1243 50.5731 26.4864 50.0299C26.8485 49.4867 27.3636 49.0631 27.9666 48.8127C28.5696 48.5624 29.2334 48.4966 29.8738 48.6237C30.5143 48.7508 31.1026 49.065 31.5643 49.5266C32.026 49.9882 32.3403 50.5764 32.4674 51.2167C32.5945 51.857 32.5287 52.5206 32.2783 53.1235C32.0279 53.7264 31.6042 54.2414 31.0609 54.6034C30.5175 54.9654 29.8789 55.158 29.226 55.1569C28.3526 55.1569 27.515 54.81 26.8974 54.1925C26.2798 53.5751 25.9328 52.7376 25.9328 51.8644ZM32.0858 54.7179C31.7188 55.0881 31.2827 55.3826 30.8023 55.5846L30.6559 55.2357C31.0919 55.054 31.4879 54.7881 31.8212 54.4534C32.1523 54.1171 32.4177 53.722 32.6037 53.2883L32.9527 53.4347C32.7515 53.9155 32.4568 54.3517 32.0858 54.7179Z" fill="#407853"/>
<path d="M29.4568 49.5681C29.462 49.601 29.46 49.6347 29.4509 49.6668C29.4418 49.6989 29.4259 49.7286 29.4042 49.7539C29.3826 49.7793 29.3557 49.7996 29.3254 49.8136C29.2951 49.8275 29.2621 49.8348 29.2288 49.8348C29.1954 49.8348 29.1625 49.8275 29.1322 49.8136C29.1019 49.7996 29.075 49.7793 29.0533 49.7539C29.0317 49.7286 29.0158 49.6989 29.0067 49.6668C28.9976 49.6347 28.9956 49.601 29.0008 49.5681C28.9956 49.5351 28.9976 49.5015 29.0067 49.4694C29.0158 49.4373 29.0317 49.4076 29.0533 49.3822C29.075 49.3569 29.1019 49.3365 29.1322 49.3226C29.1625 49.3086 29.1954 49.3014 29.2288 49.3014C29.2621 49.3014 29.2951 49.3086 29.3254 49.3226C29.3557 49.3365 29.3826 49.3569 29.4042 49.3822C29.4259 49.4076 29.4418 49.4373 29.4509 49.4694C29.46 49.5015 29.462 49.5351 29.4568 49.5681Z" fill="#407853"/>
<path d="M29.4568 54.1607C29.462 54.1937 29.46 54.2273 29.4509 54.2594C29.4418 54.2915 29.4259 54.3212 29.4042 54.3466C29.3826 54.3719 29.3557 54.3923 29.3254 54.4062C29.2951 54.4202 29.2621 54.4274 29.2288 54.4274C29.1954 54.4274 29.1625 54.4202 29.1322 54.4062C29.1019 54.3923 29.075 54.3719 29.0533 54.3466C29.0317 54.3212 29.0158 54.2915 29.0067 54.2594C28.9976 54.2273 28.9956 54.1937 29.0008 54.1607C28.9956 54.1278 28.9976 54.0941 29.0067 54.062C29.0158 54.03 29.0317 54.0002 29.0533 53.9749C29.075 53.9495 29.1019 53.9292 29.1322 53.9152C29.1625 53.9013 29.1954 53.894 29.2288 53.894C29.2621 53.894 29.2951 53.9013 29.3254 53.9152C29.3557 53.9292 29.3826 53.9495 29.4042 53.9749C29.4259 54.0002 29.4418 54.03 29.4509 54.062C29.46 54.0941 29.462 54.1278 29.4568 54.1607Z" fill="#407853"/>
<path d="M31.5228 52.0951C31.6503 52.0951 31.7536 51.9918 31.7536 51.8643C31.7536 51.7369 31.6503 51.6335 31.5228 51.6335C31.3953 51.6335 31.292 51.7369 31.292 51.8643C31.292 51.9918 31.3953 52.0951 31.5228 52.0951Z" fill="#407853"/>
<path d="M26.9349 52.0951C26.8737 52.0951 26.815 52.0707 26.7717 52.0275C26.7284 51.9842 26.7041 51.9255 26.7041 51.8643C26.7041 51.8031 26.7284 51.7444 26.7717 51.7011C26.815 51.6579 26.8737 51.6335 26.9349 51.6335C26.9961 51.6335 27.0548 51.6579 27.0981 51.7011C27.1414 51.7444 27.1657 51.8031 27.1657 51.8643C27.1643 51.9251 27.1395 51.9829 27.0965 52.0259C27.0535 52.0689 26.9956 52.0936 26.9349 52.0951Z" fill="#407853"/>
<path d="M31.0162 50.4011C30.9839 50.4333 30.9428 50.4553 30.898 50.4642C30.8533 50.4731 30.8069 50.4685 30.7647 50.451C30.7225 50.4336 30.6865 50.404 30.6611 50.366C30.6358 50.3281 30.6222 50.2835 30.6222 50.2378C30.6222 50.1922 30.6358 50.1476 30.6611 50.1097C30.6865 50.0717 30.7225 50.0421 30.7647 50.0247C30.8069 50.0072 30.8533 50.0026 30.898 50.0115C30.9428 50.0204 30.9839 50.0424 31.0162 50.0746C31.0377 50.0961 31.0547 50.1215 31.0663 50.1495C31.0779 50.1775 31.0839 50.2075 31.0839 50.2378C31.0839 50.2682 31.0779 50.2982 31.0663 50.3262C31.0547 50.3542 31.0377 50.3796 31.0162 50.4011Z" fill="#407853"/>
<path d="M27.768 53.6485C27.7357 53.6808 27.6946 53.7027 27.6498 53.7116C27.6051 53.7205 27.5587 53.7159 27.5165 53.6985C27.4743 53.681 27.4383 53.6514 27.413 53.6135C27.3876 53.5755 27.3741 53.5309 27.3741 53.4853C27.3741 53.4396 27.3876 53.395 27.413 53.3571C27.4383 53.3191 27.4743 53.2896 27.5165 53.2721C27.5587 53.2546 27.6051 53.25 27.6498 53.2589C27.6946 53.2678 27.7357 53.2898 27.768 53.3221C27.7895 53.3435 27.8065 53.3689 27.8181 53.3969C27.8297 53.4249 27.8357 53.455 27.8357 53.4853C27.8357 53.5156 27.8297 53.5456 27.8181 53.5736C27.8065 53.6016 27.7895 53.6271 27.768 53.6485Z" fill="#407853"/>
<path d="M30.6896 53.6485C30.6574 53.6162 30.6354 53.5751 30.6265 53.5304C30.6176 53.4856 30.6222 53.4392 30.6397 53.3971C30.6571 53.3549 30.6867 53.3189 30.7247 53.2935C30.7626 53.2682 30.8072 53.2546 30.8529 53.2546C30.8985 53.2546 30.9431 53.2682 30.9811 53.2935C31.019 53.3189 31.0486 53.3549 31.0661 53.3971C31.0836 53.4392 31.0882 53.4856 31.0793 53.5304C31.0704 53.5751 31.0484 53.6162 31.0161 53.6485C30.9947 53.67 30.9692 53.687 30.9412 53.6986C30.9132 53.7102 30.8832 53.7162 30.8529 53.7162C30.8226 53.7162 30.7925 53.7102 30.7645 53.6986C30.7365 53.687 30.7111 53.67 30.6896 53.6485Z" fill="#407853"/>
<path d="M27.4584 50.401C27.4262 50.3687 27.4042 50.3276 27.3953 50.2828C27.3864 50.238 27.391 50.1917 27.4085 50.1495C27.4259 50.1073 27.4555 50.0713 27.4935 50.046C27.5314 50.0206 27.576 50.0071 27.6217 50.0071C27.6673 50.0071 27.7119 50.0206 27.7499 50.046C27.7878 50.0713 27.8174 50.1073 27.8349 50.1495C27.8524 50.1917 27.857 50.238 27.8481 50.2828C27.8392 50.3276 27.8172 50.3687 27.7849 50.401C27.7635 50.4224 27.738 50.4394 27.71 50.451C27.682 50.4626 27.652 50.4686 27.6217 50.4686C27.5914 50.4686 27.5613 50.4626 27.5333 50.451C27.5053 50.4394 27.4799 50.4224 27.4584 50.401Z" fill="#407853"/>
<path d="M29.226 50.3616C28.9288 50.3616 28.6382 50.4497 28.391 50.6148C28.1438 50.78 27.9512 51.0147 27.8374 51.2893C27.7236 51.5638 27.6939 51.866 27.7519 52.1575C27.8099 52.449 27.953 52.7168 28.1632 52.9269C28.3734 53.1371 28.6412 53.2802 28.9328 53.3382C29.2244 53.3962 29.5266 53.3664 29.8012 53.2527C30.0759 53.1389 30.3106 52.9463 30.4758 52.6992C30.6409 52.4521 30.7291 52.1615 30.7291 51.8643C30.7298 51.6668 30.6915 51.471 30.6162 51.2884C30.5409 51.1057 30.4302 50.9398 30.2905 50.8001C30.1508 50.6604 29.9848 50.5497 29.8021 50.4745C29.6194 50.3992 29.4236 50.3608 29.226 50.3616ZM29.226 52.2808C29.1423 52.2808 29.0604 52.2559 28.9909 52.2093C28.9213 52.1626 28.8672 52.0964 28.8355 52.0189C28.8037 51.9414 28.7956 51.8563 28.8124 51.7743C28.8292 51.6922 28.8699 51.617 28.9295 51.5582C28.9892 51.4994 29.0649 51.4597 29.1472 51.444C29.2294 51.4284 29.3145 51.4375 29.3915 51.4704C29.4686 51.5032 29.5341 51.5581 29.5798 51.6283C29.6256 51.6985 29.6494 51.7806 29.6482 51.8643C29.6483 51.9195 29.6373 51.9741 29.616 52.025C29.5947 52.0759 29.5635 52.1221 29.5242 52.1608C29.485 52.1996 29.4384 52.2301 29.3872 52.2507C29.336 52.2713 29.2812 52.2816 29.226 52.2808Z" fill="#407853"/>
<path d="M41.8022 38.0977H16.8413L14.0547 41.6491H24.5874V42.0768C24.9536 41.9051 25.3296 41.7547 25.7133 41.6266V39.7805H28.8995C31.164 39.7936 33.3795 40.4409 35.2946 41.6491H41.8022V38.0977ZM20.9733 40.9118H18.7609V40.1238H20.962L20.9733 40.9118Z" fill="#407853"/>
<path d="M41.8022 42.7748H36.8539C38.1176 43.8621 39.1725 45.1704 39.967 46.6358H41.8022V42.7748Z" fill="#407853"/>
<path d="M42.3933 38.0977V46.6357H44.0202L48.3943 38.4916L48.6025 38.0977H42.3933ZM45.2981 40.9118H43.2771V40.1238H45.2981V40.9118Z" fill="#407853"/>
<path d="M49.3626 40.6529L50.4378 38.6943H52.4869C54.0699 38.0036 55.7784 37.6472 57.5055 37.6472C59.2327 37.6472 60.9412 38.0036 62.5242 38.6943H64.3369V35.9758H50.2295L48.7715 38.6943L44.1722 47.2774H45.2981C45.9182 44.6951 47.3412 42.3758 49.3626 40.6529Z" fill="#407853"/>
<path d="M68.4745 50.1759C68.4747 49.7772 68.4522 49.3788 68.4069 48.9827L69.3076 48.6393L69.1162 47.5812H68.1536C67.965 46.8031 67.6912 46.0481 67.3373 45.3299L68.0635 44.6996L67.5006 43.7709L66.5886 44.0861C66.1454 43.4249 65.632 42.8135 65.0574 42.2625L65.5246 41.4183L64.7027 40.7316L63.954 41.3395C63.3132 40.8642 62.62 40.4638 61.888 40.1463L62.04 39.1951L61.0661 38.8349L60.5707 39.6623C59.8059 39.4385 59.0186 39.3007 58.2232 39.2514L58.0431 38.2721H56.9679L56.7877 39.2176C55.9906 39.2675 55.2015 39.4053 54.4346 39.6285L53.9167 38.8349L52.9091 39.2064L53.061 40.1576C52.3303 40.4776 51.6374 40.8778 50.995 41.3508L50.252 40.7429L49.4301 41.4295L49.8973 42.2738C49.3209 42.8246 48.8056 43.436 48.3605 44.0973L47.4541 43.7822L46.8912 44.7108L47.623 45.3412C47.2691 46.0594 46.9954 46.8144 46.8067 47.5925H45.8441L45.6583 48.6506L46.5984 48.9658C46.5159 49.7591 46.5159 50.5588 46.5984 51.3522L45.7034 51.6955L45.8891 52.7536H46.8518C47.0404 53.5317 47.3141 54.2867 47.668 55.0049L46.9362 55.6353L47.4992 56.5639L48.383 56.2825C48.8282 56.9439 49.3434 57.5552 49.9198 58.1061L49.4526 58.9503L50.2745 59.6369L51.0176 59.0291C51.6599 59.5021 52.3528 59.9022 53.0836 60.2223L52.9316 61.1735L53.9392 61.5393L54.4346 60.7176C55.2015 60.9408 55.9906 61.0786 56.7877 61.1284L56.9679 62.074H58.0431L58.2232 61.1284C59.0186 61.0791 59.8059 60.9413 60.5707 60.7176L61.0661 61.5393L62.0738 61.1735L61.9218 60.2223C62.6538 59.9048 63.347 59.5044 63.9878 59.0291L64.7365 59.6369L65.5584 58.9503L65.0912 58.1061C65.6658 57.5551 66.1792 56.9437 66.6224 56.2825L67.5343 56.5977L68.0973 55.669L67.3711 55.0387C67.725 54.3205 67.9987 53.5655 68.1874 52.7874H69.15L69.3358 51.7293L68.4351 51.3859C68.4716 50.9837 68.4847 50.5796 68.4745 50.1759ZM57.5027 56.2825C56.2904 56.2814 55.1057 55.921 54.0983 55.2468C53.0909 54.5727 52.306 53.615 51.8429 52.495C51.3797 51.3749 51.2591 50.1427 51.4963 48.9541C51.7335 47.7656 52.3178 46.674 53.1754 45.8174C54.033 44.9608 55.1253 44.3776 56.3144 44.1415C57.5034 43.9055 58.7358 44.0272 59.8556 44.4913C60.9755 44.9553 61.9326 45.7409 62.606 46.7487C63.2794 47.7566 63.6388 48.9413 63.6388 50.1533C63.6388 50.9587 63.48 51.7562 63.1716 52.5002C62.8631 53.2442 62.4111 53.9201 61.8412 54.4893C61.2713 55.0585 60.5949 55.5099 59.8504 55.8176C59.106 56.1253 58.3082 56.2832 57.5027 56.2825Z" fill="#407853"/>
<path d="M57.5027 45.026C56.4817 45.026 55.4837 45.3287 54.6348 45.8958C53.7858 46.4629 53.1242 47.269 52.7335 48.212C52.3428 49.1551 52.2405 50.1928 52.4397 51.194C52.6389 52.1951 53.1306 53.1148 53.8525 53.8366C54.5745 54.5584 55.4943 55.0499 56.4956 55.249C57.497 55.4482 58.535 55.346 59.4782 54.9554C60.4215 54.5647 61.2277 53.9032 61.7949 53.0545C62.3622 52.2057 62.6649 51.2079 62.6649 50.1871C62.6649 48.8183 62.1211 47.5055 61.153 46.5377C60.1849 45.5698 58.8718 45.026 57.5027 45.026ZM59.3379 45.8477C60.4677 46.324 61.3667 47.2227 61.843 48.3523L61.4377 48.5268C61.0058 47.5139 60.199 46.7073 59.1859 46.2755L59.3379 45.8477ZM54.1757 46.8552C54.6032 46.4235 55.1122 46.0811 55.6732 45.8477L55.842 46.253C54.832 46.6891 54.0265 47.4944 53.5903 48.5043L53.1849 48.3298C53.4164 47.7753 53.7529 47.2708 54.1757 46.8439V46.8552ZM55.6732 54.5265C55.1122 54.2931 54.6032 53.9507 54.1757 53.519C53.7448 53.0898 53.4007 52.5815 53.1624 52.0219L53.5678 51.8474C54.004 52.8573 54.8094 53.6626 55.8195 54.0987L55.6732 54.5265ZM53.6635 50.1871C53.6635 49.4266 53.8891 48.6831 54.3118 48.0509C54.7346 47.4186 55.3354 46.9259 56.0383 46.6351C56.7412 46.3443 57.5145 46.2685 58.2605 46.4173C59.0065 46.5661 59.6916 46.9327 60.2291 47.4709C60.7666 48.0091 61.1324 48.6946 61.2801 49.4406C61.4278 50.1867 61.3509 50.9598 61.059 51.6621C60.7671 52.3644 60.2734 52.9644 59.6404 53.3861C59.0073 53.8078 58.2634 54.0323 57.5027 54.0312C56.9971 54.0312 56.4965 53.9314 56.0296 53.7374C55.5627 53.5435 55.1387 53.2592 54.782 52.901C54.4252 52.5428 54.1428 52.1176 53.9508 51.65C53.7589 51.1823 53.6612 50.6813 53.6635 50.1759V50.1871ZM60.8354 53.519C60.4068 53.9494 59.8981 54.2917 59.3379 54.5265L59.1634 54.1213C59.6733 53.9077 60.1362 53.596 60.5257 53.2039C60.9143 52.8147 61.224 52.3541 61.4377 51.8474L61.843 52.0219C61.6055 52.5772 61.2634 53.0816 60.8354 53.5078V53.519Z" fill="#407853"/>
<path d="M57.5028 47.7726C57.652 47.7726 57.773 47.6517 57.773 47.5025C57.773 47.3533 57.652 47.2323 57.5028 47.2323C57.3535 47.2323 57.2325 47.3533 57.2325 47.5025C57.2325 47.6517 57.3535 47.7726 57.5028 47.7726Z" fill="#407853"/>
<path d="M57.5028 53.1194C57.652 53.1194 57.773 52.9985 57.773 52.8493C57.773 52.7001 57.652 52.5791 57.5028 52.5791C57.3535 52.5791 57.2325 52.7001 57.2325 52.8493C57.2325 52.9985 57.3535 53.1194 57.5028 53.1194Z" fill="#407853"/>
<path d="M60.1824 50.446C60.1287 50.4471 60.0759 50.4322 60.0307 50.4032C59.9856 50.3743 59.9501 50.3325 59.9288 50.2832C59.9074 50.2339 59.9013 50.1795 59.9111 50.1267C59.9208 50.0739 59.9461 50.0253 59.9837 49.9869C60.0212 49.9486 60.0694 49.9223 60.1219 49.9114C60.1745 49.9005 60.2291 49.9055 60.2788 49.9258C60.3285 49.946 60.371 49.9807 60.401 50.0252C60.4309 50.0697 60.4469 50.1222 60.447 50.1759C60.447 50.2465 60.4193 50.3144 60.3698 50.3649C60.3204 50.4154 60.2531 50.4445 60.1824 50.446Z" fill="#407853"/>
<path d="M54.8288 50.4461C54.978 50.4461 55.099 50.3251 55.099 50.1759C55.099 50.0267 54.978 49.9058 54.8288 49.9058C54.6795 49.9058 54.5586 50.0267 54.5586 50.1759C54.5586 50.3251 54.6795 50.4461 54.8288 50.4461Z" fill="#407853"/>
<path d="M59.5856 48.4761C59.5352 48.5253 59.4675 48.5528 59.397 48.5528C59.3266 48.5528 59.2589 48.5253 59.2084 48.4761C59.1833 48.451 59.1633 48.4212 59.1496 48.3884C59.136 48.3555 59.129 48.3203 59.129 48.2848C59.129 48.2492 59.136 48.214 59.1496 48.1811C59.1633 48.1483 59.1833 48.1185 59.2084 48.0934C59.2331 48.0684 59.2624 48.0485 59.2948 48.0349C59.3272 48.0214 59.3619 48.0144 59.397 48.0144C59.4321 48.0144 59.4669 48.0214 59.4993 48.0349C59.5316 48.0485 59.561 48.0684 59.5856 48.0934C59.6108 48.1185 59.6308 48.1483 59.6444 48.1811C59.6581 48.214 59.6651 48.2492 59.6651 48.2848C59.6651 48.3203 59.6581 48.3555 59.6444 48.3884C59.6308 48.4212 59.6108 48.451 59.5856 48.4761Z" fill="#407853"/>
<path d="M55.6112 52.3372C55.7604 52.3372 55.8814 52.2162 55.8814 52.067C55.8814 51.9178 55.7604 51.7969 55.6112 51.7969C55.462 51.7969 55.341 51.9178 55.341 52.067C55.341 52.2162 55.462 52.3372 55.6112 52.3372Z" fill="#407853"/>
<path d="M59.2084 52.2583C59.1833 52.2332 59.1633 52.2034 59.1496 52.1706C59.136 52.1377 59.129 52.1025 59.129 52.067C59.129 52.0314 59.136 51.9962 59.1496 51.9634C59.1633 51.9305 59.1833 51.9007 59.2084 51.8756C59.2589 51.8265 59.3266 51.799 59.397 51.799C59.4675 51.799 59.5352 51.8265 59.5856 51.8756C59.6108 51.9007 59.6308 51.9305 59.6444 51.9634C59.6581 51.9962 59.6651 52.0314 59.6651 52.067C59.6651 52.1025 59.6581 52.1377 59.6444 52.1706C59.6308 52.2034 59.6108 52.2332 59.5856 52.2583C59.5352 52.3075 59.4675 52.335 59.397 52.335C59.3266 52.335 59.2589 52.3075 59.2084 52.2583Z" fill="#407853"/>
<path d="M55.6112 48.555C55.7604 48.555 55.8814 48.434 55.8814 48.2848C55.8814 48.1356 55.7604 48.0146 55.6112 48.0146C55.462 48.0146 55.341 48.1356 55.341 48.2848C55.341 48.434 55.462 48.555 55.6112 48.555Z" fill="#407853"/>
<path d="M57.5027 48.403C57.1564 48.403 56.8179 48.5056 56.53 48.698C56.2421 48.8903 56.0177 49.1637 55.8852 49.4835C55.7527 49.8033 55.718 50.1553 55.7856 50.4948C55.8531 50.8344 56.0199 51.1463 56.2647 51.3911C56.5096 51.6359 56.8215 51.8026 57.1611 51.8701C57.5008 51.9376 57.8528 51.903 58.1727 51.7705C58.4926 51.638 58.766 51.4137 58.9584 51.1258C59.1508 50.838 59.2535 50.4995 59.2535 50.1533C59.2542 49.9233 59.2094 49.6953 59.1217 49.4826C59.034 49.2699 58.905 49.0767 58.7423 48.914C58.5796 48.7513 58.3863 48.6224 58.1736 48.5347C57.9608 48.447 57.7328 48.4022 57.5027 48.403ZM57.5027 50.6543C57.4058 50.6543 57.3111 50.6255 57.2306 50.5717C57.1501 50.5179 57.0873 50.4415 57.0502 50.352C57.0132 50.2625 57.0035 50.1641 57.0224 50.0691C57.0412 49.9741 57.0879 49.8868 57.1564 49.8184C57.2249 49.7499 57.3122 49.7033 57.4072 49.6844C57.5022 49.6655 57.6006 49.6752 57.6901 49.7122C57.7796 49.7493 57.8561 49.812 57.9099 49.8926C57.9637 49.9731 57.9925 50.0678 57.9925 50.1646C57.9925 50.2945 57.9409 50.419 57.849 50.5108C57.7572 50.6027 57.6326 50.6543 57.5027 50.6543Z" fill="#407853"/>
<path d="M44.9884 50.6993H41.4306C41.566 51.3865 41.6526 52.0824 41.6896 52.7818H45.2474C45.1009 52.0964 45.0143 51.3997 44.9884 50.6993Z" fill="#407853"/>
<path d="M44.9772 50.0239C44.9877 49.2394 45.0706 48.4575 45.2249 47.6882H43.4573L43.7725 47.1254H40.2035C40.6698 48.0578 41.0305 49.0395 41.2787 50.0521L44.9772 50.0239Z" fill="#407853"/>
<path d="M45.4106 53.4684H41.7065C41.7065 53.5022 41.7065 53.5359 41.7065 53.5697V55.3426H46.0355V55.2188C45.7837 54.6518 45.5748 54.0667 45.4106 53.4684Z" fill="#407853"/>
<path d="M73.6987 61.196C61.1664 63.402 48.9261 67.0275 37.2143 72.0023H25.4206C43.7838 65.6874 62.1189 62.6256 73.6987 61.196Z" fill="#407853"/>
<path d="M75.1791 64.2466C69.4667 66.5078 63.8899 69.0974 58.4766 72.0023H51.5805C59.3015 68.9947 67.1791 66.4057 75.1791 64.2466Z" fill="#407853"/>
<path d="M73.0062 69.2275L72.7473 69.5821C72.6628 69.7059 72.5784 69.8241 72.4883 69.9423C72.3983 70.0605 72.2913 70.2069 72.19 70.3419C72.0886 70.477 72.038 70.5446 71.9592 70.6402L71.689 70.9892C71.4131 71.3325 71.126 71.6758 70.8502 72.0079H67.9229C69.6792 71.0061 71.3681 70.0774 73.0062 69.2275Z" fill="#407853"/>
<path d="M59.8445 59.7609C43.1196 61.742 26.7036 65.7819 10.9697 71.7884C9.70778 70.2826 8.56173 68.6833 7.54136 67.0044C27.4583 61.7026 47.4654 60.1605 59.8445 59.7609Z" fill="#407853"/>
<path d="M24.0132 58.894C16.9595 59.8621 10.6095 61.1116 5.1489 62.3948C4.65351 61.2692 4.20315 60.0872 3.81472 58.894H24.0132Z" fill="#407853"/>
<path d="M5.62842 78.2939H7.60156L8.73535 83.3213H8.75293L9.88672 78.2939H11.8687V84.7539H10.625V79.353H10.6074L9.38135 84.7539H8.06738L6.88965 79.353H6.87207V84.7539H5.62842V78.2939ZM13.1255 78.2939H14.4219V82.6929H14.4395L16.9971 78.2939H18.3638V84.7539H17.0674V80.3813H17.0498L14.4966 84.7539H13.1255V78.2939ZM19.6294 78.2939H20.9829V80.7505H23.5186V78.2939H24.8677V84.7539H23.5186V81.8667H20.9829V84.7539H19.6294V78.2939ZM26.1333 78.2939H27.4297V82.6929H27.4473L30.0049 78.2939H31.3716V84.7539H30.0752V80.3813H30.0576L27.5044 84.7539H26.1333V78.2939ZM32.1187 78.2939H37.4097V79.4058H35.4365V84.7539H34.0874V79.4058H32.1187V78.2939ZM38.2578 78.2939H41.1934C41.5361 78.2939 41.8335 78.3408 42.0854 78.4346C42.3403 78.5283 42.5513 78.6646 42.7183 78.8433C42.8853 79.022 43.0098 79.2388 43.0918 79.4937C43.1738 79.7485 43.2148 80.0386 43.2148 80.3638C43.2148 80.6655 43.1665 80.9438 43.0698 81.1987C42.9731 81.4507 42.8325 81.6689 42.6479 81.8535C42.4663 82.0352 42.2437 82.1772 41.98 82.2798C41.7163 82.3823 41.4175 82.4336 41.0835 82.4336H39.6069V84.7539H38.2578V78.2939ZM39.6069 81.3174H40.8857C41.1904 81.3174 41.4292 81.2427 41.6021 81.0933C41.7778 80.9438 41.8657 80.7007 41.8657 80.3638C41.8657 80.1938 41.8423 80.0488 41.7954 79.9287C41.7515 79.8086 41.687 79.7104 41.6021 79.6343C41.52 79.5552 41.4175 79.498 41.2944 79.4629C41.1743 79.4248 41.0381 79.4058 40.8857 79.4058H39.6069V81.3174ZM46.0142 78.2939H47.5566L49.8418 84.7539H48.374L47.9609 83.4224H45.5747L45.1265 84.7539H43.7026L46.0142 78.2939ZM45.9351 82.3062H47.583L46.7788 79.7485H46.7612L45.9351 82.3062ZM50.8086 78.2939H52.1577V80.9219L54.6274 78.2939H56.3721L53.7354 80.9395L56.5259 84.7539H54.8164L52.8169 81.8931L52.1577 82.5654V84.7539H50.8086V78.2939ZM56.6401 78.2939H61.9312V79.4058H59.958V84.7539H58.6089V79.4058H56.6401V78.2939ZM62.4365 81.5239C62.4365 81.0405 62.501 80.5923 62.6299 80.1792C62.7588 79.7661 62.9521 79.4087 63.21 79.1069C63.4678 78.8022 63.7915 78.5635 64.1812 78.3906C64.5708 78.2178 65.0249 78.1313 65.5435 78.1313C66.021 78.1313 66.4517 78.2178 66.8354 78.3906C67.2192 78.5635 67.5444 78.8022 67.811 79.1069C68.0806 79.4087 68.2871 79.7661 68.4307 80.1792C68.5742 80.5923 68.646 81.0405 68.646 81.5239C68.646 82.0044 68.5742 82.4526 68.4307 82.8687C68.2871 83.2817 68.0806 83.6406 67.811 83.9453C67.5444 84.2471 67.2192 84.4844 66.8354 84.6572C66.4517 84.8301 66.021 84.9165 65.5435 84.9165C65.0249 84.9165 64.5708 84.8301 64.1812 84.6572C63.7915 84.4844 63.4678 84.2471 63.21 83.9453C62.9521 83.6406 62.7588 83.2817 62.6299 82.8687C62.501 82.4526 62.4365 82.0044 62.4365 81.5239ZM65.5435 83.7476C65.8188 83.7476 66.0649 83.6919 66.2817 83.5806C66.4985 83.4692 66.6816 83.3154 66.8311 83.1191C66.9834 82.9199 67.0991 82.6855 67.1782 82.416C67.2573 82.1436 67.2969 81.8462 67.2969 81.5239C67.2969 81.2017 67.2573 80.9058 67.1782 80.6362C67.0991 80.3638 66.9834 80.1294 66.8311 79.9331C66.6816 79.7339 66.4985 79.5786 66.2817 79.4673C66.0649 79.356 65.8188 79.3003 65.5435 79.3003C65.2681 79.3003 65.022 79.356 64.8052 79.4673C64.5884 79.5786 64.4038 79.7339 64.2515 79.9331C64.1021 80.1294 63.9863 80.3638 63.9043 80.6362C63.8252 80.9058 63.7856 81.2017 63.7856 81.5239C63.7856 81.8462 63.8252 82.1436 63.9043 82.416C63.9863 82.6855 64.1021 82.9199 64.2515 83.1191C64.4038 83.3154 64.5884 83.4692 64.8052 83.5806C65.022 83.6919 65.2681 83.7476 65.5435 83.7476ZM69.7842 78.2939H72.7197C73.0625 78.2939 73.3599 78.3408 73.6118 78.4346C73.8667 78.5283 74.0776 78.6646 74.2446 78.8433C74.4116 79.022 74.5361 79.2388 74.6182 79.4937C74.7002 79.7485 74.7412 80.0386 74.7412 80.3638C74.7412 80.6655 74.6929 80.9438 74.5962 81.1987C74.4995 81.4507 74.3589 81.6689 74.1743 81.8535C73.9927 82.0352 73.77 82.1772 73.5063 82.2798C73.2427 82.3823 72.9438 82.4336 72.6099 82.4336H71.1333V84.7539H69.7842V78.2939ZM71.1333 81.3174H72.4121C72.7168 81.3174 72.9556 81.2427 73.1284 81.0933C73.3042 80.9438 73.3921 80.7007 73.3921 80.3638C73.3921 80.1938 73.3687 80.0488 73.3218 79.9287C73.2778 79.8086 73.2134 79.7104 73.1284 79.6343C73.0464 79.5552 72.9438 79.498 72.8208 79.4629C72.7007 79.4248 72.5645 79.4058 72.4121 79.4058H71.1333V81.3174Z" fill="#407853"/>
</svg>
