<svg width="22" height="22" viewBox="0 0 22 22" fill="none" xmlns="http://www.w3.org/2000/svg">
<path fill-rule="evenodd" clip-rule="evenodd" d="M12.5286 20.1666C12.5093 20.1666 12.491 20.1657 12.4726 20.1648C12.0583 20.14 11.7127 19.8394 11.6302 19.4324L10.2204 12.4959C10.1471 12.1348 9.86563 11.8534 9.50447 11.78L2.56805 10.3693C2.16105 10.2877 1.86038 9.94211 1.83563 9.52777C1.81088 9.11252 2.06663 8.73302 2.4608 8.60286L17.1275 3.71427C17.4566 3.60244 17.8196 3.68861 18.0652 3.93519C18.3109 4.18086 18.3961 4.54386 18.2871 4.87294L13.3976 19.5396C13.2729 19.9164 12.9209 20.1666 12.5286 20.1666Z" fill="#598468"/>
<mask id="mask0" mask-type="alpha" maskUnits="userSpaceOnUse" x="1" y="3" width="18" height="18">
<path fill-rule="evenodd" clip-rule="evenodd" d="M12.5286 20.1666C12.5093 20.1666 12.491 20.1657 12.4726 20.1648C12.0583 20.14 11.7127 19.8394 11.6302 19.4324L10.2204 12.4959C10.1471 12.1348 9.86563 11.8534 9.50447 11.78L2.56805 10.3693C2.16105 10.2877 1.86038 9.94211 1.83563 9.52777C1.81088 9.11252 2.06663 8.73302 2.4608 8.60286L17.1275 3.71427C17.4566 3.60244 17.8196 3.68861 18.0652 3.93519C18.3109 4.18086 18.3961 4.54386 18.2871 4.87294L13.3976 19.5396C13.2729 19.9164 12.9209 20.1666 12.5286 20.1666Z" fill="white"/>
</mask>
<g mask="url(#mask0)">
<rect width="22" height="22" fill="#598468"/>
</g>
</svg>
