<svg width="124" height="30" viewBox="0 0 124 30" fill="none" xmlns="http://www.w3.org/2000/svg">
<path d="M50.656 15L47.776 10.95C47.452 10.986 47.116 11.004 46.768 11.004H43.384V15H42.052V2.4H46.768C48.376 2.4 49.636 2.784 50.548 3.552C51.46 4.32 51.916 5.376 51.916 6.72C51.916 7.704 51.664 8.538 51.16 9.222C50.668 9.894 49.96 10.38 49.036 10.68L52.114 15H50.656ZM46.732 9.87C47.98 9.87 48.934 9.594 49.594 9.042C50.254 8.49 50.584 7.716 50.584 6.72C50.584 5.7 50.254 4.92 49.594 4.38C48.934 3.828 47.98 3.552 46.732 3.552H43.384V9.87H46.732ZM55.0598 2.4H56.3918V15H55.0598V2.4ZM65.9635 15.108C64.7155 15.108 63.5875 14.832 62.5795 14.28C61.5835 13.728 60.7975 12.966 60.2215 11.994C59.6575 11.01 59.3755 9.912 59.3755 8.7C59.3755 7.488 59.6575 6.396 60.2215 5.424C60.7975 4.44 61.5895 3.672 62.5975 3.12C63.6055 2.568 64.7335 2.292 65.9815 2.292C66.9175 2.292 67.7815 2.448 68.5735 2.76C69.3655 3.072 70.0375 3.528 70.5895 4.128L69.7435 4.974C68.7595 3.978 67.5175 3.48 66.0175 3.48C65.0215 3.48 64.1155 3.708 63.2995 4.164C62.4835 4.62 61.8415 5.244 61.3735 6.036C60.9175 6.828 60.6895 7.716 60.6895 8.7C60.6895 9.684 60.9175 10.572 61.3735 11.364C61.8415 12.156 62.4835 12.78 63.2995 13.236C64.1155 13.692 65.0215 13.92 66.0175 13.92C67.5295 13.92 68.7715 13.416 69.7435 12.408L70.5895 13.254C70.0375 13.854 69.3595 14.316 68.5555 14.64C67.7635 14.952 66.8995 15.108 65.9635 15.108ZM83.959 2.4V15H82.645V9.186H74.761V15H73.429V2.4H74.761V8.016H82.645V2.4H83.959ZM96.0095 8.502C96.8375 8.682 97.4735 9.042 97.9175 9.582C98.3735 10.11 98.6015 10.794 98.6015 11.634C98.6015 12.714 98.1995 13.548 97.3955 14.136C96.6035 14.712 95.4275 15 93.8675 15H88.0715V2.4H93.5075C94.9115 2.4 95.9975 2.682 96.7655 3.246C97.5455 3.81 97.9355 4.608 97.9355 5.64C97.9355 6.336 97.7615 6.93 97.4135 7.422C97.0775 7.902 96.6095 8.262 96.0095 8.502ZM89.4035 3.498V8.07H93.4175C94.4375 8.07 95.2235 7.878 95.7755 7.494C96.3275 7.098 96.6035 6.528 96.6035 5.784C96.6035 5.04 96.3275 4.476 95.7755 4.092C95.2235 3.696 94.4375 3.498 93.4175 3.498H89.4035ZM93.8495 13.902C94.9775 13.902 95.8295 13.71 96.4055 13.326C96.9815 12.942 97.2695 12.342 97.2695 11.526C97.2695 9.954 96.1295 9.168 93.8495 9.168H89.4035V13.902H93.8495ZM110.552 13.848V15H101.642V2.4H110.282V3.552H102.974V8.034H109.49V9.168H102.974V13.848H110.552ZM122.593 13.848V15H113.683V2.4H122.323V3.552H115.015V8.034H121.531V9.168H115.015V13.848H122.593Z" fill="#F4F7FB"/>
<path d="M45.348 20.23C45.792 20.23 46.194 20.332 46.554 20.536C46.914 20.734 47.196 21.016 47.4 21.382C47.604 21.748 47.706 22.165 47.706 22.633C47.706 23.107 47.604 23.527 47.4 23.893C47.196 24.259 46.914 24.544 46.554 24.748C46.2 24.946 45.798 25.045 45.348 25.045C44.964 25.045 44.616 24.967 44.304 24.811C43.998 24.649 43.746 24.415 43.548 24.109V26.746H42.909V20.266H43.521V21.202C43.713 20.89 43.965 20.65 44.277 20.482C44.595 20.314 44.952 20.23 45.348 20.23ZM45.303 24.478C45.633 24.478 45.933 24.403 46.203 24.253C46.473 24.097 46.683 23.878 46.833 23.596C46.989 23.314 47.067 22.993 47.067 22.633C47.067 22.273 46.989 21.955 46.833 21.679C46.683 21.397 46.473 21.178 46.203 21.022C45.933 20.866 45.633 20.788 45.303 20.788C44.967 20.788 44.664 20.866 44.394 21.022C44.13 21.178 43.92 21.397 43.764 21.679C43.614 21.955 43.539 22.273 43.539 22.633C43.539 22.993 43.614 23.314 43.764 23.596C43.92 23.878 44.13 24.097 44.394 24.253C44.664 24.403 44.967 24.478 45.303 24.478ZM50.6816 20.23C51.2996 20.23 51.7736 20.386 52.1036 20.698C52.4336 21.004 52.5986 21.46 52.5986 22.066V25H51.9866V24.262C51.8426 24.508 51.6296 24.7 51.3476 24.838C51.0716 24.976 50.7416 25.045 50.3576 25.045C49.8296 25.045 49.4096 24.919 49.0976 24.667C48.7856 24.415 48.6296 24.082 48.6296 23.668C48.6296 23.266 48.7736 22.942 49.0616 22.696C49.3556 22.45 49.8206 22.327 50.4566 22.327H51.9596V22.039C51.9596 21.631 51.8456 21.322 51.6176 21.112C51.3896 20.896 51.0566 20.788 50.6186 20.788C50.3186 20.788 50.0306 20.839 49.7546 20.941C49.4786 21.037 49.2416 21.172 49.0436 21.346L48.7556 20.869C48.9956 20.665 49.2836 20.509 49.6196 20.401C49.9556 20.287 50.3096 20.23 50.6816 20.23ZM50.4566 24.541C50.8166 24.541 51.1256 24.46 51.3836 24.298C51.6416 24.13 51.8336 23.89 51.9596 23.578V22.804H50.4746C49.6646 22.804 49.2596 23.086 49.2596 23.65C49.2596 23.926 49.3646 24.145 49.5746 24.307C49.7846 24.463 50.0786 24.541 50.4566 24.541ZM56.5069 22.534C56.8429 22.612 57.1009 22.747 57.2809 22.939C57.4669 23.131 57.5599 23.365 57.5599 23.641C57.5599 23.917 57.4639 24.163 57.2719 24.379C57.0859 24.595 56.8309 24.763 56.5069 24.883C56.1829 24.997 55.8259 25.054 55.4359 25.054C55.0939 25.054 54.7579 25.006 54.4279 24.91C54.0979 24.808 53.8099 24.661 53.5639 24.469L53.7799 23.992C53.9959 24.154 54.2479 24.28 54.5359 24.37C54.8239 24.46 55.1149 24.505 55.4089 24.505C55.8469 24.505 56.2039 24.424 56.4799 24.262C56.7619 24.094 56.9029 23.869 56.9029 23.587C56.9029 23.335 56.7889 23.14 56.5609 23.002C56.3329 22.858 56.0209 22.786 55.6249 22.786H54.8149V22.318H55.5889C55.9429 22.318 56.2279 22.252 56.4439 22.12C56.6599 21.982 56.7679 21.799 56.7679 21.571C56.7679 21.319 56.6449 21.121 56.3989 20.977C56.1589 20.833 55.8439 20.761 55.4539 20.761C54.9439 20.761 54.4399 20.89 53.9419 21.148L53.7619 20.653C54.3259 20.359 54.9109 20.212 55.5169 20.212C55.8769 20.212 56.2009 20.266 56.4889 20.374C56.7829 20.476 57.0109 20.623 57.1729 20.815C57.3409 21.007 57.4249 21.229 57.4249 21.481C57.4249 21.721 57.3409 21.934 57.1729 22.12C57.0109 22.306 56.7889 22.444 56.5069 22.534ZM61.4496 20.23C61.8936 20.23 62.2956 20.332 62.6556 20.536C63.0156 20.734 63.2976 21.016 63.5016 21.382C63.7056 21.748 63.8076 22.165 63.8076 22.633C63.8076 23.107 63.7056 23.527 63.5016 23.893C63.2976 24.259 63.0156 24.544 62.6556 24.748C62.3016 24.946 61.8996 25.045 61.4496 25.045C61.0656 25.045 60.7176 24.967 60.4056 24.811C60.0996 24.649 59.8476 24.415 59.6496 24.109V26.746H59.0106V20.266H59.6226V21.202C59.8146 20.89 60.0666 20.65 60.3786 20.482C60.6966 20.314 61.0536 20.23 61.4496 20.23ZM61.4046 24.478C61.7346 24.478 62.0346 24.403 62.3046 24.253C62.5746 24.097 62.7846 23.878 62.9346 23.596C63.0906 23.314 63.1686 22.993 63.1686 22.633C63.1686 22.273 63.0906 21.955 62.9346 21.679C62.7846 21.397 62.5746 21.178 62.3046 21.022C62.0346 20.866 61.7346 20.788 61.4046 20.788C61.0686 20.788 60.7656 20.866 60.4956 21.022C60.2316 21.178 60.0216 21.397 59.8656 21.679C59.7156 21.955 59.6406 22.273 59.6406 22.633C59.6406 22.993 59.7156 23.314 59.8656 23.596C60.0216 23.878 60.2316 24.097 60.4956 24.253C60.7656 24.403 61.0686 24.478 61.4046 24.478ZM66.7831 20.23C67.4011 20.23 67.8751 20.386 68.2051 20.698C68.5351 21.004 68.7001 21.46 68.7001 22.066V25H68.0881V24.262C67.9441 24.508 67.7311 24.7 67.4491 24.838C67.1731 24.976 66.8431 25.045 66.4591 25.045C65.9311 25.045 65.5111 24.919 65.1991 24.667C64.8871 24.415 64.7311 24.082 64.7311 23.668C64.7311 23.266 64.8751 22.942 65.1631 22.696C65.4571 22.45 65.9221 22.327 66.5581 22.327H68.0611V22.039C68.0611 21.631 67.9471 21.322 67.7191 21.112C67.4911 20.896 67.1581 20.788 66.7201 20.788C66.4201 20.788 66.1321 20.839 65.8561 20.941C65.5801 21.037 65.3431 21.172 65.1451 21.346L64.8571 20.869C65.0971 20.665 65.3851 20.509 65.7211 20.401C66.0571 20.287 66.4111 20.23 66.7831 20.23ZM66.5581 24.541C66.9181 24.541 67.2271 24.46 67.4851 24.298C67.7431 24.13 67.9351 23.89 68.0611 23.578V22.804H66.5761C65.7661 22.804 65.3611 23.086 65.3611 23.65C65.3611 23.926 65.4661 24.145 65.6761 24.307C65.8861 24.463 66.1801 24.541 66.5581 24.541ZM72.6962 20.383C73.1342 20.383 73.5242 20.482 73.8662 20.68C74.2142 20.872 74.4842 21.145 74.6762 21.499C74.8682 21.847 74.9642 22.246 74.9642 22.696C74.9642 23.158 74.8622 23.569 74.6582 23.929C74.4602 24.283 74.1812 24.559 73.8212 24.757C73.4612 24.955 73.0472 25.054 72.5792 25.054C71.7932 25.054 71.1842 24.778 70.7522 24.226C70.3202 23.674 70.1042 22.912 70.1042 21.94C70.1042 20.926 70.2962 20.149 70.6802 19.609C71.0702 19.069 71.6762 18.703 72.4982 18.511L74.6222 18.025L74.7302 18.61L72.7322 19.069C72.0542 19.219 71.5562 19.486 71.2382 19.87C70.9202 20.248 70.7462 20.809 70.7162 21.553C70.9082 21.187 71.1752 20.902 71.5172 20.698C71.8592 20.488 72.2522 20.383 72.6962 20.383ZM72.5972 24.523C72.9272 24.523 73.2212 24.448 73.4792 24.298C73.7432 24.142 73.9472 23.926 74.0912 23.65C74.2412 23.374 74.3162 23.062 74.3162 22.714C74.3162 22.366 74.2442 22.06 74.1002 21.796C73.9562 21.532 73.7522 21.328 73.4882 21.184C73.2302 21.034 72.9332 20.959 72.5972 20.959C72.2612 20.959 71.9612 21.034 71.6972 21.184C71.4392 21.328 71.2352 21.532 71.0852 21.796C70.9412 22.06 70.8692 22.366 70.8692 22.714C70.8692 23.062 70.9412 23.374 71.0852 23.65C71.2352 23.926 71.4422 24.142 71.7062 24.298C71.9702 24.448 72.2672 24.523 72.5972 24.523ZM78.2868 25.045C77.8308 25.045 77.4198 24.943 77.0538 24.739C76.6878 24.529 76.3998 24.241 76.1898 23.875C75.9798 23.509 75.8748 23.095 75.8748 22.633C75.8748 22.171 75.9798 21.757 76.1898 21.391C76.3998 21.025 76.6878 20.74 77.0538 20.536C77.4198 20.332 77.8308 20.23 78.2868 20.23C78.7428 20.23 79.1538 20.332 79.5198 20.536C79.8858 20.74 80.1708 21.025 80.3748 21.391C80.5848 21.757 80.6898 22.171 80.6898 22.633C80.6898 23.095 80.5848 23.509 80.3748 23.875C80.1708 24.241 79.8858 24.529 79.5198 24.739C79.1538 24.943 78.7428 25.045 78.2868 25.045ZM78.2868 24.478C78.6228 24.478 78.9228 24.403 79.1868 24.253C79.4568 24.097 79.6668 23.878 79.8168 23.596C79.9668 23.314 80.0418 22.993 80.0418 22.633C80.0418 22.273 79.9668 21.952 79.8168 21.67C79.6668 21.388 79.4568 21.172 79.1868 21.022C78.9228 20.866 78.6228 20.788 78.2868 20.788C77.9508 20.788 77.6478 20.866 77.3778 21.022C77.1138 21.172 76.9038 21.388 76.7478 21.67C76.5978 21.952 76.5228 22.273 76.5228 22.633C76.5228 22.993 76.5978 23.314 76.7478 23.596C76.9038 23.878 77.1138 24.097 77.3778 24.253C77.6478 24.403 77.9508 24.478 78.2868 24.478ZM85.2097 20.833H83.4187V25H82.7797V20.833H80.9887V20.266H85.2097V20.833ZM87.8526 22.894H86.7726V25H86.1336V20.266H86.7726V22.345H87.8616L89.5266 20.266H90.2196L88.3566 22.561L90.3546 25H89.5986L87.8526 22.894ZM92.9042 20.23C93.5222 20.23 93.9962 20.386 94.3262 20.698C94.6562 21.004 94.8212 21.46 94.8212 22.066V25H94.2092V24.262C94.0652 24.508 93.8522 24.7 93.5702 24.838C93.2942 24.976 92.9642 25.045 92.5802 25.045C92.0522 25.045 91.6322 24.919 91.3202 24.667C91.0082 24.415 90.8522 24.082 90.8522 23.668C90.8522 23.266 90.9962 22.942 91.2842 22.696C91.5782 22.45 92.0432 22.327 92.6792 22.327H94.1822V22.039C94.1822 21.631 94.0682 21.322 93.8402 21.112C93.6122 20.896 93.2792 20.788 92.8412 20.788C92.5412 20.788 92.2532 20.839 91.9772 20.941C91.7012 21.037 91.4642 21.172 91.2662 21.346L90.9782 20.869C91.2182 20.665 91.5062 20.509 91.8422 20.401C92.1782 20.287 92.5322 20.23 92.9042 20.23ZM92.6792 24.541C93.0392 24.541 93.3482 24.46 93.6062 24.298C93.8642 24.13 94.0562 23.89 94.1822 23.578V22.804H92.6972C91.8872 22.804 91.4822 23.086 91.4822 23.65C91.4822 23.926 91.5872 24.145 91.7972 24.307C92.0072 24.463 92.3012 24.541 92.6792 24.541ZM100.858 25.045C100.39 25.045 99.9698 24.943 99.5978 24.739C99.2318 24.535 98.9438 24.25 98.7338 23.884C98.5238 23.512 98.4188 23.095 98.4188 22.633C98.4188 22.171 98.5238 21.757 98.7338 21.391C98.9438 21.025 99.2318 20.74 99.5978 20.536C99.9698 20.332 100.39 20.23 100.858 20.23C101.266 20.23 101.629 20.311 101.947 20.473C102.271 20.629 102.526 20.86 102.712 21.166L102.235 21.49C102.079 21.256 101.881 21.082 101.641 20.968C101.401 20.848 101.14 20.788 100.858 20.788C100.516 20.788 100.207 20.866 99.9308 21.022C99.6608 21.172 99.4478 21.388 99.2917 21.67C99.1418 21.952 99.0668 22.273 99.0668 22.633C99.0668 22.999 99.1418 23.323 99.2917 23.605C99.4478 23.881 99.6608 24.097 99.9308 24.253C100.207 24.403 100.516 24.478 100.858 24.478C101.14 24.478 101.401 24.421 101.641 24.307C101.881 24.193 102.079 24.019 102.235 23.785L102.712 24.109C102.526 24.415 102.271 24.649 101.947 24.811C101.623 24.967 101.26 25.045 100.858 25.045ZM105.578 20.23C106.196 20.23 106.67 20.386 107 20.698C107.33 21.004 107.495 21.46 107.495 22.066V25H106.883V24.262C106.739 24.508 106.526 24.7 106.244 24.838C105.968 24.976 105.638 25.045 105.254 25.045C104.726 25.045 104.306 24.919 103.994 24.667C103.682 24.415 103.526 24.082 103.526 23.668C103.526 23.266 103.67 22.942 103.958 22.696C104.252 22.45 104.717 22.327 105.353 22.327H106.856V22.039C106.856 21.631 106.742 21.322 106.514 21.112C106.286 20.896 105.953 20.788 105.515 20.788C105.215 20.788 104.927 20.839 104.651 20.941C104.375 21.037 104.138 21.172 103.94 21.346L103.652 20.869C103.892 20.665 104.18 20.509 104.516 20.401C104.852 20.287 105.206 20.23 105.578 20.23ZM105.353 24.541C105.713 24.541 106.022 24.46 106.28 24.298C106.538 24.13 106.73 23.89 106.856 23.578V22.804H105.371C104.561 22.804 104.156 23.086 104.156 23.65C104.156 23.926 104.261 24.145 104.471 24.307C104.681 24.463 104.975 24.541 105.353 24.541ZM109.196 20.266H109.835V24.028L112.994 20.266H113.561V25H112.922V21.238L109.772 25H109.196V20.266ZM111.347 19.582C110.939 19.582 110.615 19.48 110.375 19.276C110.135 19.072 110.012 18.784 110.006 18.412H110.465C110.471 18.646 110.555 18.835 110.717 18.979C110.879 19.117 111.089 19.186 111.347 19.186C111.605 19.186 111.815 19.117 111.977 18.979C112.145 18.835 112.232 18.646 112.238 18.412H112.697C112.691 18.784 112.565 19.072 112.319 19.276C112.079 19.48 111.755 19.582 111.347 19.582ZM118.722 20.833H116.931V25H116.292V20.833H114.501V20.266H118.722V20.833ZM121.275 20.23C121.893 20.23 122.367 20.386 122.697 20.698C123.027 21.004 123.192 21.46 123.192 22.066V25H122.58V24.262C122.436 24.508 122.223 24.7 121.941 24.838C121.665 24.976 121.335 25.045 120.951 25.045C120.423 25.045 120.003 24.919 119.691 24.667C119.379 24.415 119.223 24.082 119.223 23.668C119.223 23.266 119.367 22.942 119.655 22.696C119.949 22.45 120.414 22.327 121.05 22.327H122.553V22.039C122.553 21.631 122.439 21.322 122.211 21.112C121.983 20.896 121.65 20.788 121.212 20.788C120.912 20.788 120.624 20.839 120.348 20.941C120.072 21.037 119.835 21.172 119.637 21.346L119.349 20.869C119.589 20.665 119.877 20.509 120.213 20.401C120.549 20.287 120.903 20.23 121.275 20.23ZM121.05 24.541C121.41 24.541 121.719 24.46 121.977 24.298C122.235 24.13 122.427 23.89 122.553 23.578V22.804H121.068C120.258 22.804 119.853 23.086 119.853 23.65C119.853 23.926 119.958 24.145 120.168 24.307C120.378 24.463 120.672 24.541 121.05 24.541Z" fill="#F4F7FB"/>
<path d="M25 0H5C3.67392 0 2.40215 0.526784 1.46447 1.46447C0.526784 2.40215 0 3.67392 0 5L0 25C0 26.3261 0.526784 27.5979 1.46447 28.5355C2.40215 29.4732 3.67392 30 5 30H25C26.3261 30 27.5979 29.4732 28.5355 28.5355C29.4732 27.5979 30 26.3261 30 25V5C30 3.67392 29.4732 2.40215 28.5355 1.46447C27.5979 0.526784 26.3261 0 25 0V0ZM12.32 20.05L8.32 13.05H12.82L16.82 20.05H12.32ZM22 25L15 13H19.5C20.1885 13.0147 20.8652 12.8194 21.44 12.44C21.8186 12.0564 22.0309 11.539 22.0309 11C22.0309 10.461 21.8186 9.94365 21.44 9.56C21.2491 9.37583 21.0235 9.23147 20.7763 9.13533C20.529 9.03919 20.2652 8.99319 20 9H6L3.5 5H20C21.1859 5.00104 22.3449 5.3535 23.3307 6.01286C24.3164 6.67222 25.0846 7.60891 25.5383 8.70461C25.992 9.80032 26.1108 11.0059 25.8797 12.1691C25.6486 13.3323 25.0781 14.4009 24.24 15.24C23.5329 15.9528 22.655 16.4726 21.69 16.75L26.5 25H22Z" fill="white"/>
</svg>
