<svg width="36" height="36" viewBox="0 0 36 36" fill="none" xmlns="http://www.w3.org/2000/svg">
<g clip-path="url(#clip0)">
<path d="M35.4656 13.0124C34.9902 12.416 34.277 12.0739 33.5088 12.0739H26.5757L22.8161 3.4653C22.583 2.93156 21.9613 2.68765 21.4275 2.92087C20.8937 3.15396 20.6499 3.77573 20.8831 4.30954L24.2739 12.0739H11.7261L15.1169 4.30954C15.35 3.77573 15.1063 3.15403 14.5725 2.92087C14.0387 2.68765 13.417 2.93142 13.1839 3.4653L9.42434 12.0739H2.49125C1.72301 12.0739 1.00983 12.416 0.53445 13.0125C0.0677857 13.598 -0.10441 14.3508 0.0620201 15.078L3.76447 31.2498C4.023 32.3791 5.02193 33.1677 6.19369 33.1677H29.8063C30.9781 33.1677 31.977 32.3791 32.2355 31.2498L35.938 15.0779C36.1044 14.3507 35.9322 13.598 35.4656 13.0124ZM29.8063 31.0582H6.19369C6.01461 31.0582 5.85774 30.9408 5.82068 30.779L2.11824 14.6072C2.0892 14.4803 2.13793 14.3848 2.18405 14.3271C2.2268 14.2734 2.32362 14.1833 2.49125 14.1833H8.50318L8.22692 14.8159C7.99383 15.3497 8.23754 15.9714 8.77135 16.2046C8.90874 16.2646 9.05189 16.293 9.19287 16.293C9.59942 16.293 9.98684 16.0566 10.1599 15.6602L10.8049 14.1835H25.1952L25.8402 15.6602C26.0133 16.0566 26.4007 16.293 26.8073 16.293C26.9482 16.293 27.0914 16.2646 27.2288 16.2046C27.7626 15.9715 28.0064 15.3497 27.7732 14.8159L27.497 14.1833H33.5089C33.6765 14.1833 33.7733 14.2734 33.8161 14.3271C33.8622 14.3849 33.9109 14.4804 33.8819 14.6072L30.1795 30.779C30.1423 30.9408 29.9854 31.0582 29.8063 31.0582Z" fill="black"/>
<path d="M11.6719 18.7535C11.0894 18.7535 10.6172 19.2258 10.6172 19.8082V27.5426C10.6172 28.1251 11.0894 28.5973 11.6719 28.5973C12.2543 28.5973 12.7266 28.1251 12.7266 27.5426V19.8082C12.7266 19.2258 12.2544 18.7535 11.6719 18.7535Z" fill="black"/>
<path d="M18 18.7535C17.4175 18.7535 16.9453 19.2258 16.9453 19.8082V27.5426C16.9453 28.1251 17.4175 28.5973 18 28.5973C18.5825 28.5973 19.0547 28.1251 19.0547 27.5426V19.8082C19.0547 19.2258 18.5825 18.7535 18 18.7535Z" fill="black"/>
<path d="M24.3281 18.7535C23.7457 18.7535 23.2734 19.2258 23.2734 19.8082V27.5426C23.2734 28.1251 23.7457 28.5973 24.3281 28.5973C24.9106 28.5973 25.3828 28.1251 25.3828 27.5426V19.8082C25.3827 19.2258 24.9106 18.7535 24.3281 18.7535Z" fill="black"/>
</g>
<defs>
<clipPath id="clip0">
<rect width="36" height="36" fill="white"/>
</clipPath>
</defs>
</svg>
