<svg width="22" height="22" viewBox="0 0 22 22" fill="none" xmlns="http://www.w3.org/2000/svg">
<path fill-rule="evenodd" clip-rule="evenodd" d="M17.4167 16.5317C17.4167 17.0377 17.0051 17.4484 16.5 17.4484H5.5C4.99492 17.4484 4.58333 17.0377 4.58333 16.5317V10.1151H17.4167V16.5317ZM7.33333 5.53174C7.83933 5.53174 8.25 5.94149 8.25 6.4484C8.25 6.95532 7.83933 7.36507 7.33333 7.36507C6.82733 7.36507 6.41667 6.95532 6.41667 6.4484C6.41667 5.94149 6.82733 5.53174 7.33333 5.53174ZM11 5.53174C11.506 5.53174 11.9167 5.94149 11.9167 6.4484C11.9167 6.95532 11.506 7.36507 11 7.36507C10.494 7.36507 10.0833 6.95532 10.0833 6.4484C10.0833 5.94149 10.494 5.53174 11 5.53174ZM16.5 2.78174H5.5C3.98383 2.78174 2.75 4.01557 2.75 5.53174V8.28174V10.1151V16.5317C2.75 18.0479 3.98383 19.2817 5.5 19.2817H16.5C18.0162 19.2817 19.25 18.0479 19.25 16.5317V10.1151V8.28174V5.53174C19.25 4.01557 18.0162 2.78174 16.5 2.78174Z" fill="#598468"/>
<mask id="mask0" mask-type="alpha" maskUnits="userSpaceOnUse" x="2" y="2" width="18" height="18">
<path fill-rule="evenodd" clip-rule="evenodd" d="M17.4167 16.5317C17.4167 17.0377 17.0051 17.4484 16.5 17.4484H5.5C4.99492 17.4484 4.58333 17.0377 4.58333 16.5317V10.1151H17.4167V16.5317ZM7.33333 5.53174C7.83933 5.53174 8.25 5.94149 8.25 6.4484C8.25 6.95532 7.83933 7.36507 7.33333 7.36507C6.82733 7.36507 6.41667 6.95532 6.41667 6.4484C6.41667 5.94149 6.82733 5.53174 7.33333 5.53174ZM11 5.53174C11.506 5.53174 11.9167 5.94149 11.9167 6.4484C11.9167 6.95532 11.506 7.36507 11 7.36507C10.494 7.36507 10.0833 6.95532 10.0833 6.4484C10.0833 5.94149 10.494 5.53174 11 5.53174ZM16.5 2.78174H5.5C3.98383 2.78174 2.75 4.01557 2.75 5.53174V8.28174V10.1151V16.5317C2.75 18.0479 3.98383 19.2817 5.5 19.2817H16.5C18.0162 19.2817 19.25 18.0479 19.25 16.5317V10.1151V8.28174V5.53174C19.25 4.01557 18.0162 2.78174 16.5 2.78174Z" fill="white"/>
</mask>
<g mask="url(#mask0)">
<rect width="22" height="22" fill="#598468"/>
</g>
</svg>
