<svg width="22" height="22" viewBox="0 0 22 22" fill="none" xmlns="http://www.w3.org/2000/svg">
<path fill-rule="evenodd" clip-rule="evenodd" d="M17.4222 5.49984L11.4593 9.59551C11.1779 9.75593 10.8332 9.75593 10.5518 9.59551L4.58887 5.49984H17.4222ZM17.4222 3.6665H4.58887C3.0727 3.6665 1.83887 4.90034 1.83887 6.4165V15.5832C1.83887 17.0993 3.0727 18.3332 4.58887 18.3332H17.4222C18.9384 18.3332 20.1722 17.0993 20.1722 15.5832V6.4165C20.1722 4.90034 18.9384 3.6665 17.4222 3.6665Z" fill="#598468"/>
<mask id="mask0" mask-type="alpha" maskUnits="userSpaceOnUse" x="1" y="3" width="20" height="16">
<path fill-rule="evenodd" clip-rule="evenodd" d="M17.4222 5.49984L11.4593 9.59551C11.1779 9.75593 10.8332 9.75593 10.5518 9.59551L4.58887 5.49984H17.4222ZM17.4222 3.6665H4.58887C3.0727 3.6665 1.83887 4.90034 1.83887 6.4165V15.5832C1.83887 17.0993 3.0727 18.3332 4.58887 18.3332H17.4222C18.9384 18.3332 20.1722 17.0993 20.1722 15.5832V6.4165C20.1722 4.90034 18.9384 3.6665 17.4222 3.6665Z" fill="white"/>
</mask>
<g mask="url(#mask0)">
<rect width="22" height="22" fill="#598468"/>
</g>
</svg>
