<svg width="22" height="22" viewBox="0 0 22 22" fill="none" xmlns="http://www.w3.org/2000/svg">
<path fill-rule="evenodd" clip-rule="evenodd" d="M15.9497 20.1668C8.16534 20.1668 1.83301 13.8345 1.83301 6.05016C1.83301 3.72458 3.72501 1.8335 6.04967 1.8335C6.28801 1.8335 6.52359 1.85366 6.75184 1.89308C6.97459 1.92883 7.19918 1.98566 7.41643 2.06083C7.71526 2.16441 7.93893 2.41466 8.00951 2.72266L9.26534 8.18966C9.33409 8.49033 9.24701 8.80566 9.03343 9.02933C8.90784 9.1595 8.90509 9.16225 7.76843 9.75716C8.68876 11.75 10.2883 13.3441 12.2418 14.2332C12.8367 13.0957 12.8403 13.092 12.9705 12.9673C13.1951 12.7528 13.5113 12.6694 13.8111 12.7354L19.2781 13.9903C19.5852 14.0609 19.8354 14.2846 19.939 14.5825C20.0142 14.7988 20.0701 15.0225 20.1077 15.2526C20.1462 15.479 20.1663 15.7137 20.1663 15.9502C20.1663 18.2757 18.2753 20.1668 15.9497 20.1668Z" fill="#598468"/>
<mask id="mask0" mask-type="alpha" maskUnits="userSpaceOnUse" x="1" y="1" width="20" height="20">
<path fill-rule="evenodd" clip-rule="evenodd" d="M15.9497 20.1668C8.16534 20.1668 1.83301 13.8345 1.83301 6.05016C1.83301 3.72458 3.72501 1.8335 6.04967 1.8335C6.28801 1.8335 6.52359 1.85366 6.75184 1.89308C6.97459 1.92883 7.19918 1.98566 7.41643 2.06083C7.71526 2.16441 7.93893 2.41466 8.00951 2.72266L9.26534 8.18966C9.33409 8.49033 9.24701 8.80566 9.03343 9.02933C8.90784 9.1595 8.90509 9.16225 7.76843 9.75716C8.68876 11.75 10.2883 13.3441 12.2418 14.2332C12.8367 13.0957 12.8403 13.092 12.9705 12.9673C13.1951 12.7528 13.5113 12.6694 13.8111 12.7354L19.2781 13.9903C19.5852 14.0609 19.8354 14.2846 19.939 14.5825C20.0142 14.7988 20.0701 15.0225 20.1077 15.2526C20.1462 15.479 20.1663 15.7137 20.1663 15.9502C20.1663 18.2757 18.2753 20.1668 15.9497 20.1668Z" fill="white"/>
</mask>c
<g mask="url(#mask0)">
<rect y="-1" width="22" height="22" fill="#598468"/>
</g>
</svg>
