<svg width="24" height="24" viewBox="0 0 24 24" fill="none" xmlns="http://www.w3.org/2000/svg">
<g clip-path="url(#clip0)">
<path d="M23.155 13.8929C23.871 7.8659 22.811 4.0609 20.899 2.3399L20.9 2.3389C17.814 -0.600097 7.39202 -1.0351 3.70002 2.4709C2.04202 4.1859 1.45802 6.7029 1.39402 9.8189C1.33002 12.9359 1.25402 18.7749 6.69502 20.3589H6.70002L6.69502 22.7779C6.69502 22.7779 6.65802 23.7579 7.28402 23.9549C8.00002 24.1869 8.32402 23.7319 10.551 21.0719C14.275 21.3949 17.135 20.6549 17.46 20.5469C18.212 20.2949 22.467 19.7319 23.155 13.8929ZM10.918 19.3699C10.918 19.3699 8.56102 22.3089 7.82802 23.0719C7.58802 23.3199 7.32502 23.2969 7.32902 22.8049C7.32902 22.4819 7.34702 18.7889 7.34702 18.7889C2.73402 17.4669 3.00602 12.4949 3.05602 9.8939C3.10602 7.2919 3.58202 5.1609 4.98602 3.7259C8.22502 0.688903 17.362 1.3679 19.69 3.5559C22.536 6.0789 21.523 13.2069 21.529 13.4499C20.944 18.3239 17.496 18.6329 16.862 18.8439C16.591 18.9339 14.076 19.5809 10.918 19.3699Z" fill="#8E24AA"/>
<path d="M12.222 4.29688C11.837 4.29688 11.837 4.89688 12.222 4.90188C15.209 4.92488 17.669 7.00688 17.696 10.8259C17.696 11.2289 18.286 11.2239 18.281 10.8209H18.28C18.248 6.70588 15.562 4.31988 12.222 4.29688Z" fill="#8E24AA"/>
<path d="M16.151 10.1929C16.142 10.5909 16.731 10.6099 16.736 10.2069C16.785 7.93791 15.386 6.06891 12.757 5.87191C12.372 5.84391 12.332 6.44891 12.716 6.47691C14.996 6.64991 16.197 8.20591 16.151 10.1929Z" fill="#8E24AA"/>
<path d="M15.521 12.7739C15.027 12.4879 14.524 12.6659 14.316 12.9469L13.881 13.5099C13.66 13.7959 13.247 13.7579 13.247 13.7579C10.233 12.9609 9.427 9.80686 9.427 9.80686C9.427 9.80686 9.39 9.37986 9.666 9.15086L10.21 8.70086C10.482 8.48486 10.654 7.96486 10.377 7.45386C9.637 6.11686 9.14 5.65586 8.887 5.30186C8.621 4.96886 8.221 4.89386 7.805 5.11886H7.796C6.931 5.62486 5.984 6.57186 6.287 7.54686C6.804 8.57486 7.754 11.8519 10.782 14.3279C12.205 15.4989 14.457 16.6989 15.413 16.9759L15.422 16.9899C16.364 17.3039 17.28 16.3199 17.769 15.4289V15.4219C17.986 14.9909 17.914 14.5829 17.597 14.3159C17.035 13.7679 16.187 13.1629 15.521 12.7739Z" fill="#8E24AA"/>
<path d="M13.169 8.10393C14.13 8.15993 14.596 8.66193 14.646 9.69294C14.664 10.0959 15.249 10.0679 15.231 9.66494C15.167 8.31893 14.465 7.56893 13.201 7.49893C12.816 7.47593 12.78 8.08093 13.169 8.10393Z" fill="#8E24AA"/>
</g>
<defs>
<clipPath id="clip0">
<rect width="24" height="24" fill="white"/>
</clipPath>
</defs>
</svg>
