<svg width="24" height="24" viewBox="0 0 24 24" fill="none" xmlns="http://www.w3.org/2000/svg">
<g clip-path="url(#clip0)">
<path d="M11.9935 0.00623135C5.37004 0.00763677 0.00175901 5.37821 0.00316443 12.0017C0.0036329 14.2952 0.66179 16.5405 1.8995 18.4713L0.0336152 23.3125C-0.0657479 23.5699 0.0624263 23.8592 0.319899 23.9586C0.377474 23.9808 0.43861 23.9922 0.500308 23.9921C0.557555 23.9924 0.614381 23.9826 0.668208 23.9631L5.66527 22.1791C11.2875 25.6807 18.6838 23.9616 22.1854 18.3393C25.687 12.717 23.9678 5.32073 18.3456 1.81917C16.4397 0.632158 14.2389 0.00402953 11.9935 0.00623135Z" fill="#4CAF50"/>
<path d="M17.7112 14.049C17.7112 14.049 16.4869 13.4494 15.7204 13.0496C14.8529 12.6029 13.8335 13.4394 13.3538 13.9151C12.6072 13.6283 11.9253 13.1955 11.348 12.6419C10.7943 12.0647 10.3614 11.3827 10.0747 10.6361C10.5504 10.1554 11.3849 9.13694 10.9402 8.26947C10.5454 7.50192 9.94082 6.27864 9.94082 6.27766C9.85598 6.10929 9.68363 6.003 9.49507 6.00281H8.49568C7.04023 6.25419 5.98199 7.52413 5.99717 9.00103C5.99717 10.5701 7.87504 13.5843 9.14133 14.8516C10.4076 16.1188 13.4218 17.9957 14.9918 17.9957C16.4688 18.0109 17.7387 16.9526 17.9901 15.4972V14.4978C17.9902 14.3072 17.8821 14.1332 17.7112 14.049Z" fill="#FAFAFA"/>
</g>
<defs>
<clipPath id="clip0">
<rect width="24" height="24" fill="white"/>
</clipPath>
</defs>
</svg>
